<svg width="0" height="0" class="hidden">

  <symbol version="1.1" id="mail-svgrepo-com" xmlns="http://www.w3.org/2000/svg" xmlns:xlink="http://www.w3.org/1999/xlink" x="0px" y="0px" xml:space="preserve" viewBox="0 0 474 474">

    <g>

      <path d="M437.5,59.3h-401C16.4,59.3,0,75.7,0,95.8v282.4c0,20.1,16.4,36.5,36.5,36.5h401c20.1,0,36.5-16.4,36.5-36.5V95.8

		C474,75.7,457.6,59.3,437.5,59.3z M432.2,86.3L239.5,251.1L46.8,86.3H432.2z M447,378.2c0,5.2-4.3,9.5-9.5,9.5h-401

		c-5.2,0-9.5-4.3-9.5-9.5V104.9l203.7,174.2c0.1,0.1,0.3,0.2,0.4,0.3c0.1,0.1,0.3,0.2,0.4,0.3c0.3,0.2,0.5,0.4,0.8,0.5

		c0.1,0.1,0.2,0.1,0.3,0.2c0.4,0.2,0.8,0.4,1.2,0.6c0.1,0,0.2,0.1,0.3,0.1c0.3,0.1,0.6,0.3,1,0.4c0.1,0,0.3,0.1,0.4,0.1

		c0.3,0.1,0.6,0.2,0.9,0.2c0.1,0,0.3,0.1,0.4,0.1c0.3,0.1,0.7,0.1,1,0.2c0.1,0,0.2,0,0.3,0c0.4,0,0.9,0.1,1.3,0.1l0,0l0,0

		c0.4,0,0.9,0,1.3-0.1c0.1,0,0.2,0,0.3,0c0.3,0,0.7-0.1,1-0.2c0.1,0,0.3-0.1,0.4-0.1c0.3-0.1,0.6-0.2,0.9-0.2c0.1,0,0.3-0.1,0.4-0.1

		c0.3-0.1,0.6-0.2,1-0.4c0.1,0,0.2-0.1,0.3-0.1c0.4-0.2,0.8-0.4,1.2-0.6c0.1-0.1,0.2-0.1,0.3-0.2c0.3-0.2,0.5-0.3,0.8-0.5

		c0.1-0.1,0.3-0.2,0.4-0.3c0.1-0.1,0.3-0.2,0.4-0.3L447,109.2V378.2z"></path>

    </g>

    <g></g>

    <g></g>

    <g></g>

    <g></g>

    <g></g>

    <g></g>

    <g></g>

    <g></g>

    <g></g>

    <g></g>

    <g></g>

    <g></g>

    <g></g>

    <g></g>

    <g></g>

  </symbol>

  <symbol version="1.0" xmlns="http://www.w3.org/2000/svg" preserveAspectRatio="xMidYMid meet" viewBox="0 0 529.000000 256.000000" id="logo-nav">

    <g transform="translate(0.000000,256.000000) scale(0.100000,-0.100000)" fill="#000000" stroke="none">

      <path d="M3213 2054 c-7 -3 -3 -14 12 -30 33 -36 41 -95 19 -134 -10 -16 -22

-30 -27 -30 -4 0 -6 -3 -4 -7 3 -5 -13 -9 -35 -11 -30 -2 -48 3 -73 22 -35 27

-45 25 -45 -11 0 -18 5 -23 27 -23 41 0 125 -48 154 -88 29 -41 60 -149 53

-184 -14 -66 -27 -108 -34 -108 -15 0 -20 -33 -8 -48 11 -14 10 -14 -6 -5 -16

9 -25 6 -48 -15 -15 -15 -23 -29 -19 -32 5 -3 2 -12 -7 -20 -14 -13 -15 -12

-9 3 8 22 6 22 -61 -12 -72 -36 -96 -41 -182 -42 -79 -1 -98 -13 -74 -47 12

-17 25 -22 59 -22 24 0 47 5 50 11 4 6 14 8 22 5 19 -8 64 4 58 14 -3 5 9 7

26 5 27 -4 29 -3 17 12 -12 15 -11 15 9 5 25 -14 36 -15 30 -4 -3 4 7 8 21 9

15 1 71 5 124 9 105 7 132 -1 187 -60 13 -14 28 -23 32 -20 5 3 6 -2 3 -10 -3

-9 -2 -16 3 -16 11 0 35 -92 37 -137 0 -15 -3 -45 -7 -65 l-8 -37 33 11 c18 6

34 12 36 13 6 5 -51 190 -59 193 -5 2 -6 8 -3 13 3 6 1 15 -4 22 -5 7 -9 19

-9 27 0 28 -34 131 -42 126 -4 -3 -6 7 -4 22 2 15 -19 101 -47 192 -28 91 -56

184 -62 207 -5 24 -14 41 -18 38 -5 -3 -6 3 -4 12 2 10 -13 70 -33 133 -37

111 -48 127 -80 114z m77 -148 c0 -3 -4 -8 -10 -11 -5 -3 -10 -1 -10 4 0 6 5

11 10 11 6 0 10 -2 10 -4z m-7 -66 c-3 -12 -8 -19 -11 -16 -5 6 5 36 12 36 2

0 2 -9 -1 -20z m-33 -44 c0 -3 -4 -8 -10 -11 -5 -3 -10 -1 -10 4 0 6 5 11 10

11 6 0 10 -2 10 -4z m81 -123 c-12 -20 -14 -14 -5 12 4 9 9 14 11 11 3 -2 0

-13 -6 -23z m-24 -65 c-3 -8 -6 -5 -6 6 -1 11 2 17 5 13 3 -3 4 -12 1 -19z

m10 -80 c-3 -8 -6 -5 -6 6 -1 11 2 17 5 13 3 -3 4 -12 1 -19z m62 -78 c0 -9

-4 -8 -9 5 -5 11 -9 27 -9 35 0 9 4 8 9 -5 5 -11 9 -27 9 -35z m-115 -79 c-8

-8 -43 -8 -38 0 2 4 13 7 24 6 10 -1 17 -3 14 -6z m-64 -87 c0 -2 -13 2 -30

11 -16 9 -30 18 -30 21 0 2 14 -2 30 -11 17 -9 30 -18 30 -21z"></path>

      <path d="M2815 1934 c-44 -14 -102 -31 -130 -38 -91 -25 -239 -68 -299 -87

-33 -10 -68 -19 -79 -19 -11 0 -15 -4 -11 -12 5 -7 2 -9 -9 -5 -25 10 -137

-32 -137 -51 0 -14 39 -151 46 -160 1 -2 12 1 23 7 17 9 20 9 15 -3 -3 -9 -11

-14 -17 -13 -7 1 -12 -8 -11 -20 1 -29 -4 -29 -29 3 -59 75 -218 98 -318 46

-100 -52 -142 -169 -105 -294 31 -108 141 -170 269 -153 114 16 186 81 202

185 12 83 17 89 31 40 6 -25 28 -99 48 -165 20 -66 46 -157 58 -203 12 -45 24

-78 28 -72 3 5 6 -5 6 -23 0 -35 71 -267 81 -267 9 0 140 40 186 56 20 8 47

14 58 14 11 0 18 4 15 9 -4 5 4 7 16 3 18 -4 14 3 -18 35 -37 38 -63 93 -65

139 0 18 -1 18 -10 -1 -8 -17 -8 -16 -3 5 4 14 7 37 8 52 0 14 4 24 7 22 3 -2

11 7 17 21 6 13 23 32 37 41 l27 17 -44 21 c-34 17 -48 32 -69 74 -34 71 -27

130 21 186 27 30 28 35 13 41 -10 5 -22 7 -26 6 -5 -1 -6 3 -3 8 4 5 2 12 -3

15 -15 10 -43 116 -44 166 0 54 9 85 35 122 11 16 16 33 12 39 -4 7 -3 9 3 6

6 -4 19 3 29 14 11 12 39 33 64 47 25 14 47 29 50 32 3 3 10 5 15 6 33 1 87

18 90 28 8 28 14 106 7 105 -4 0 -43 -12 -87 -25z m-1 -80 c3 -8 2 -12 -4 -9

-6 3 -10 10 -10 16 0 14 7 11 14 -7z m-166 -21 c16 -16 16 -16 -1 -10 -10 4

-35 8 -55 8 l-37 2 35 7 c19 4 36 8 38 9 2 0 11 -7 20 -16z m132 7 c0 -5 -4

-10 -10 -10 -5 0 -10 5 -10 10 0 6 5 10 10 10 6 0 10 -4 10 -10z m-84 -45 c17

-16 14 -18 -10 -9 -9 3 -16 10 -16 15 0 13 9 11 26 -6z m-231 -13 c-3 -3 -11

0 -18 7 -9 10 -8 11 6 5 10 -3 15 -9 12 -12z m-28 -8 c-3 -3 -12 -4 -19 -1 -8

3 -5 6 6 6 11 1 17 -2 13 -5z m140 -111 c-3 -10 -5 -2 -5 17 0 19 2 27 5 18 2

-10 2 -26 0 -35z m-361 -48 c-1 -14 -5 -27 -8 -30 -4 -5 -4 19 1 48 3 19 9 4

7 -18z m-164 -145 c29 -30 30 -33 26 -106 -3 -69 -6 -79 -31 -100 -30 -25 -75

-31 -108 -14 -31 17 -49 64 -49 129 0 49 4 65 26 90 36 44 93 44 136 1z m220

-74 c-3 -5 -9 -1 -13 10 -12 31 -10 39 5 19 8 -11 12 -24 8 -29z m25 -28 c-3

-7 -5 -2 -5 12 0 14 2 19 5 13 2 -7 2 -19 0 -25z m361 -33 c-3 -3 -9 2 -12 12

-6 14 -5 15 5 6 7 -7 10 -15 7 -18z m-351 -27 c-3 -8 -6 -5 -6 6 -1 11 2 17 5

13 3 -3 4 -12 1 -19z m290 -100 c-3 -8 -6 -5 -6 6 -1 11 2 17 5 13 3 -3 4 -12

1 -19z m20 -58 c10 -27 10 -29 -10 -26 -16 2 -23 11 -25 34 -4 40 19 35 35 -8z

m-228 -106 c-11 -14 -13 -14 -22 1 -5 9 -6 19 -3 22 3 4 6 1 6 -5 0 -19 20

-14 21 6 0 11 2 12 6 4 3 -7 -1 -20 -8 -28z m270 -14 c11 -24 11 -24 -3 -6 -9

11 -16 24 -16 30 0 12 5 7 19 -24z"></path>

      <path d="M2591 1154 c0 -11 3 -14 6 -6 3 7 2 16 -1 19 -3 4 -6 -2 -5 -13z"></path>

      <path d="M863 1784 c-44 -22 -61 -66 -40 -108 9 -19 28 -38 46 -46 94 -38 164

98 78 151 -38 23 -43 23 -84 3z"></path>

      <path d="M525 1773 c-11 -2 -30 -6 -42 -8 -35 -8 -71 -51 -78 -93 -12 -67 -15

-72 -45 -72 -43 0 -80 -20 -87 -48 -9 -39 20 -59 90 -61 l27 -1 0 -125 0 -125

-49 0 c-74 0 -103 -38 -61 -80 18 -18 33 -20 172 -20 178 0 196 4 205 38 10

40 -8 57 -66 60 l-51 3 0 125 0 124 33 0 c39 0 77 24 77 49 0 39 -30 57 -102

60 -24 1 -24 52 0 82 22 26 52 20 52 -10 0 -23 36 -51 65 -51 27 0 65 35 65

60 0 11 -13 34 -28 51 -34 38 -110 57 -177 42z"></path>

      <path d="M1360 1740 c-42 -42 -19 -73 57 -80 l58 -5 3 -42 c2 -24 -1 -43 -5

-43 -5 0 -26 9 -48 20 -50 26 -115 25 -165 0 -137 -70 -145 -340 -13 -430 50

-34 141 -35 194 -2 44 27 45 27 52 1 5 -20 11 -21 107 -17 107 3 120 9 120 55

0 27 -27 43 -74 43 l-36 0 0 248 c0 180 -3 251 -12 260 -8 8 -48 12 -115 12

-90 0 -106 -3 -123 -20z m96 -266 c25 -24 26 -30 23 -110 -4 -77 -6 -87 -29

-104 -36 -28 -91 -26 -120 5 -18 19 -25 40 -28 85 -8 106 18 150 88 150 31 0

47 -7 66 -26z"></path>

      <path d="M4790 1747 c-22 -11 -26 -21 -30 -77 l-5 -65 -40 -5 c-55 -8 -65 -16

-65 -55 0 -39 20 -55 68 -55 l30 0 4 -127 c5 -182 31 -219 152 -217 60 1 111

18 134 47 18 22 29 98 20 134 -10 40 -40 58 -68 43 -17 -9 -24 -31 -33 -100

-1 -9 -13 -15 -27 -15 l-25 0 0 120 0 120 63 3 c54 3 64 6 79 28 13 20 14 30

5 49 -10 20 -19 25 -54 27 -24 0 -47 2 -53 3 -5 2 -18 3 -27 4 -15 1 -18 11

-18 60 0 67 -15 91 -58 91 -15 0 -38 -6 -52 -13z"></path>

      <path d="M2905 1670 c-11 -4 -30 -19 -43 -33 -20 -21 -23 -32 -18 -73 4 -38

12 -55 36 -76 17 -16 39 -28 49 -28 67 0 130 65 115 118 -17 59 -24 72 -55 87

-31 17 -54 18 -84 5z m15 -30 c8 -5 11 -10 5 -10 -5 0 -17 5 -25 10 -8 5 -10

10 -5 10 6 0 17 -5 25 -10z"></path>

      <path d="M3705 1611 c-86 -21 -122 -84 -75 -131 41 -41 140 -16 140 36 0 21 4

24 38 24 43 0 62 -14 62 -47 0 -30 -39 -49 -126 -63 -129 -20 -180 -68 -171

-157 6 -58 30 -91 85 -115 59 -27 143 -20 206 15 l45 25 22 -24 c53 -56 159

-35 159 32 0 19 -8 28 -34 39 l-34 14 -4 133 c-5 164 -16 191 -92 213 -51 16

-169 18 -221 6z m165 -282 c0 -44 -39 -79 -88 -79 -21 0 -43 5 -50 12 -18 18

-15 65 6 73 30 13 117 32 125 28 4 -2 7 -18 7 -34z"></path>

      <path d="M4264 1610 c-18 -6 -46 -26 -63 -45 -26 -30 -31 -44 -31 -85 0 -74

30 -103 138 -136 118 -36 132 -43 132 -69 0 -32 -19 -45 -66 -45 -46 0 -90 28

-105 67 -11 29 -47 44 -76 30 -16 -7 -23 -20 -25 -46 -10 -114 18 -162 71

-124 24 18 28 18 56 3 41 -21 179 -19 222 3 66 35 96 106 74 178 -15 50 -44

69 -142 90 -115 25 -160 62 -110 89 39 20 85 12 117 -21 40 -42 60 -52 83 -40

24 13 37 94 22 134 -12 32 -50 37 -76 10 -15 -14 -20 -15 -38 -3 -27 16 -142

23 -183 10z"></path>

      <path d="M780 1593 c-35 -7 -50 -21 -50 -49 0 -32 26 -54 66 -54 l34 0 0 -125

0 -125 -38 0 c-21 0 -43 -5 -50 -12 -19 -19 -15 -66 7 -78 11 -5 83 -10 160

-10 128 0 143 2 161 20 24 24 24 29 4 58 -11 16 -25 22 -55 22 l-39 0 0 164

c0 199 1 197 -103 195 -40 -1 -83 -4 -97 -6z"></path>

      <path d="M3162 1066 c-25 -6 -40 -15 -35 -20 4 -5 3 -6 -4 -2 -13 7 -118 -9

-164 -26 -58 -21 -63 -95 -9 -118 48 -20 130 -4 252 48 68 30 90 85 46 116

-26 18 -27 18 -86 2z m55 -48 c-3 -8 -6 -5 -6 6 -1 11 2 17 5 13 3 -3 4 -12 1

-19z m-273 -52 c-3 -15 -8 -25 -11 -23 -2 3 -1 17 3 31 3 15 8 25 11 23 2 -3

1 -17 -3 -31z"></path>

      <path d="M282 675 c0 -11 4 -33 8 -50 l8 -30 0 30 c0 17 -3 39 -8 50 l-9 20 1

-20z"></path>

      <path d="M748 673 c-5 -59 -4 -115 4 -119 4 -3 8 6 8 20 0 18 6 26 23 29 l22

4 -22 2 c-19 1 -23 7 -23 35 0 28 4 35 23 39 19 4 18 4 -5 6 -20 1 -28 -4 -30

-16z"></path>

      <path d="M966 674 c-23 -22 -20 -28 6 -10 28 20 43 20 62 0 26 -25 20 -81 -9

-100 -23 -15 -27 -15 -52 0 l-28 17 24 -20 c28 -25 44 -26 65 -5 41 41 42 91

3 119 -28 19 -52 19 -71 -1z"></path>

      <path d="M1196 681 c-4 -5 3 -7 14 -4 23 6 26 13 6 13 -8 0 -17 -4 -20 -9z"></path>

      <path d="M1386 626 c-29 -74 -32 -86 -14 -68 16 16 88 16 88 0 0 -6 2 -9 5 -6

3 3 3 12 -1 21 -4 12 -13 15 -30 11 -13 -3 -31 -4 -39 0 -13 5 -13 10 2 40 9

19 20 33 25 30 10 -7 10 7 -1 24 -6 10 -16 -7 -35 -52z"></path>

      <path d="M1618 683 c17 -2 32 -9 32 -14 0 -5 -16 -33 -35 -61 -19 -28 -32 -55

-29 -60 7 -12 84 -10 84 2 0 6 -15 9 -35 7 -19 -3 -35 -1 -35 2 0 3 16 30 35

58 19 29 35 57 35 63 0 5 -19 9 -42 8 -37 -1 -39 -2 -10 -5z"></path>

      <path d="M1792 618 c3 -72 3 -73 32 -76 18 -2 26 0 21 7 -3 7 -14 10 -23 9

-12 -2 -18 5 -20 24 -3 22 1 27 25 31 l28 4 -28 2 c-25 1 -28 5 -25 28 2 19

10 29 28 34 23 6 22 7 -8 8 l-33 1 3 -72z"></path>

      <path d="M2337 658 c-4 -28 -4 -58 2 -110 1 -5 15 -8 32 -8 18 0 28 4 24 10

-4 6 -14 9 -23 8 -12 -2 -18 5 -20 24 -3 21 2 27 20 31 l23 4 -22 2 c-18 1

-23 7 -23 30 0 25 5 30 28 34 26 4 26 4 -4 6 -28 1 -32 -2 -37 -31z"></path>

      <path d="M2902 674 c-17 -12 -22 -25 -22 -59 0 -37 4 -47 26 -62 23 -15 29

-15 52 -2 14 8 27 20 30 28 2 7 -5 4 -17 -8 -33 -33 -81 -8 -81 44 0 40 30 70

61 60 14 -5 19 -4 15 4 -10 16 -38 14 -64 -5z"></path>

      <path d="M3147 650 c-8 -22 -12 -40 -7 -40 5 0 12 12 18 28 l9 27 17 -33 c9

-18 14 -37 11 -42 -8 -14 -52 -13 -57 1 -2 6 -10 -2 -17 -17 -10 -23 -10 -27

0 -16 15 14 89 16 89 2 0 -5 4 -10 9 -10 9 0 -33 117 -48 133 -4 4 -15 -10

-24 -33z"></path>

      <path d="M3356 681 c-4 -5 3 -7 14 -4 23 6 26 13 6 13 -8 0 -17 -4 -20 -9z"></path>

      <path d="M3533 678 c11 -9 17 -32 20 -73 l3 -60 2 67 c2 54 5 67 20 71 9 3 -1

5 -22 6 -34 1 -37 -1 -23 -11z"></path>

      <path d="M3700 620 c0 -40 4 -70 10 -70 6 0 10 15 10 33 1 30 1 31 15 13 15

-19 15 -19 15 2 0 13 -6 22 -15 22 -22 0 -20 57 3 63 10 3 6 5 -10 6 -28 1

-28 1 -28 -69z"></path>

      <path d="M4379 669 l-24 -20 28 17 c22 13 33 15 52 6 21 -10 25 -19 25 -56 0

-46 -9 -56 -55 -56 -27 0 -35 10 -46 54 l-7 31 -1 -28 c-1 -38 41 -81 72 -72

36 11 51 32 51 71 0 26 -7 42 -23 55 -30 24 -43 24 -72 -2z"></path>

      <path d="M4617 683 c-10 -10 -8 -35 2 -29 5 4 12 0 14 -6 4 -9 6 -8 6 2 1 20

-14 42 -22 33z"></path>

      <path d="M340 633 c-17 -62 -21 -68 -32 -52 -6 10 -8 7 -6 -11 5 -40 21 -29

36 23 7 26 17 47 23 47 5 0 9 9 9 20 0 36 -17 21 -30 -27z"></path>

      <path d="M569 649 c11 -20 22 -52 22 -70 l1 -34 7 35 c4 19 15 48 25 63 10 15

16 30 12 34 -3 3 -6 2 -6 -3 0 -5 -8 -18 -16 -29 -15 -20 -16 -20 -41 10 l-25

30 21 -36z"></path>

      <path d="M815 645 c0 -40 1 -41 14 -16 7 13 7 23 -2 35 -10 14 -12 11 -12 -19z"></path>

      <path d="M1972 613 c2 -65 2 -66 5 -14 4 53 4 53 24 35 l21 -19 -19 33 c-10

17 -21 32 -25 32 -5 0 -7 -30 -6 -67z"></path>

      <path d="M2070 670 c-2 -8 -4 -33 -4 -55 -1 -30 -5 -39 -16 -37 -12 3 -11 -1

2 -14 25 -25 29 -15 25 57 -2 35 -5 57 -7 49z"></path>

      <path d="M2203 615 c0 -38 2 -53 4 -32 2 20 2 52 0 70 -2 17 -4 1 -4 -38z"></path>

      <path d="M3765 650 c0 -15 3 -26 8 -23 4 2 7 13 7 23 0 10 -3 21 -7 23 -5 3

-8 -8 -8 -23z"></path>

      <path d="M3900 661 c-12 -23 -13 -71 -2 -87 28 -43 93 -35 110 13 11 32 -8 93

-28 93 -7 0 -5 -7 4 -16 19 -18 21 -75 4 -92 -7 -7 -24 -12 -38 -12 -14 0 -31

5 -38 12 -17 17 -15 68 5 90 9 10 11 18 5 18 -6 0 -16 -9 -22 -19z"></path>

      <path d="M4142 615 l1 -70 6 55 6 55 29 -43 c16 -23 31 -40 34 -38 4 4 -36 62

-70 101 -4 5 -7 -22 -6 -60z"></path>

      <path d="M4230 631 c0 -27 -3 -56 -6 -65 -4 -11 -1 -16 10 -16 13 0 16 12 16

65 0 37 -4 65 -10 65 -5 0 -10 -22 -10 -49z"></path>

      <path d="M4685 629 c-12 -36 -20 -47 -26 -38 -7 12 -9 11 -9 -1 0 -8 4 -21 9

-29 7 -10 14 2 27 42 9 31 21 54 24 52 4 -3 11 -28 15 -57 5 -29 10 -44 12

-33 5 31 -11 108 -24 112 -6 2 -19 -19 -28 -48z"></path>

      <path d="M4863 615 c0 -38 2 -53 4 -32 2 20 2 52 0 70 -2 17 -4 1 -4 -38z"></path>

      <path d="M4996 664 c-10 -26 -7 -114 4 -114 6 0 10 28 10 65 0 66 -3 77 -14

49z"></path>

      <path d="M1171 654 c0 -11 3 -14 6 -6 3 7 2 16 -1 19 -3 4 -6 -2 -5 -13z"></path>

      <path d="M3330 656 c0 -8 4 -17 9 -20 5 -4 7 3 4 14 -6 23 -13 26 -13 6z"></path>

      <path d="M422 635 c0 -16 2 -22 5 -12 2 9 2 23 0 30 -3 6 -5 -1 -5 -18z"></path>

      <path d="M942 615 c0 -16 2 -22 5 -12 2 9 2 23 0 30 -3 6 -5 -1 -5 -18z"></path>

      <path d="M1430 635 c0 -5 5 -17 10 -25 5 -8 10 -10 10 -5 0 6 -5 17 -10 25 -5

8 -10 11 -10 5z"></path>

      <path d="M4601 624 c0 -11 3 -14 6 -6 3 7 2 16 -1 19 -3 4 -6 -2 -5 -13z"></path>

      <path d="M371 625 c1 -19 18 -51 18 -35 0 8 -4 22 -9 30 -5 8 -9 11 -9 5z"></path>

      <path d="M2958 613 c6 -2 18 -2 25 0 6 3 1 5 -13 5 -14 0 -19 -2 -12 -5z"></path>

      <path d="M1245 599 c9 -23 -20 -48 -47 -42 -19 5 -21 3 -11 -7 10 -11 18 -11

38 -2 31 14 42 39 26 55 -9 9 -11 8 -6 -4z"></path>

      <path d="M3400 587 c0 -27 -11 -33 -50 -27 -11 1 -12 -1 -4 -10 16 -16 51 -4

65 22 8 14 8 23 0 31 -8 8 -11 4 -11 -16z"></path>

      <path d="M410 588 c0 -9 -6 -18 -12 -21 -10 -3 -10 -7 -1 -17 9 -10 13 -7 19

14 3 15 4 30 0 33 -3 4 -6 -1 -6 -9z"></path>

      <path d="M4592 570 c0 -14 2 -19 5 -12 2 6 2 18 0 25 -3 6 -5 1 -5 -13z"></path>

      <path d="M3760 571 c0 -6 4 -13 10 -16 6 -3 7 1 4 9 -7 18 -14 21 -14 7z"></path>

    </g>

  </symbol>

  <symbol version="1.1" id="location-svgrepo-com" xmlns="http://www.w3.org/2000/svg" xmlns:xlink="http://www.w3.org/1999/xlink" x="0px" y="0px" xml:space="preserve" viewBox="0 0 315 315">

    <g>

      <g>

        <g>

          <path d="M157.5,0C93.319,0,41.103,52.215,41.103,116.397c0,62.138,106.113,190.466,110.63,195.898

				c1.425,1.713,3.538,2.705,5.767,2.705c2.228,0,4.342-0.991,5.767-2.705c4.518-5.433,110.63-133.76,110.63-195.898

				C273.897,52.215,221.682,0,157.5,0z M157.5,295.598c-9.409-11.749-28.958-36.781-48.303-65.397

				c-34.734-51.379-53.094-90.732-53.094-113.804C56.103,60.486,101.59,15,157.5,15c55.91,0,101.397,45.486,101.397,101.397

				c0,23.071-18.359,62.424-53.094,113.804C186.457,258.817,166.909,283.849,157.5,295.598z"></path>

          <path d="M195.657,213.956c-3.432-2.319-8.095-1.415-10.413,2.017c-10.121,14.982-21.459,30.684-33.699,46.67

				c-2.518,3.289-1.894,7.996,1.395,10.514c1.36,1.042,2.963,1.546,4.554,1.546c2.254,0,4.484-1.013,5.96-2.941

				c12.42-16.22,23.933-32.165,34.219-47.392C199.992,220.938,199.09,216.275,195.657,213.956z"></path>

          <path d="M157.5,57.5C123.589,57.5,96,85.089,96,119s27.589,61.5,61.5,61.5S219,152.911,219,119S191.411,57.5,157.5,57.5z

				 M157.5,165.5c-25.64,0-46.5-20.86-46.5-46.5s20.86-46.5,46.5-46.5c25.641,0,46.5,20.86,46.5,46.5S183.141,165.5,157.5,165.5z"></path>

        </g>

      </g>

    </g>

    <g></g>

    <g></g>

    <g></g>

    <g></g>

    <g></g>

    <g></g>

    <g></g>

    <g></g>

    <g></g>

    <g></g>

    <g></g>

    <g></g>

    <g></g>

    <g></g>

    <g></g>

  </symbol>

  <symbol version="1.1" id="phone-svgrepo-com" xmlns="http://www.w3.org/2000/svg" xmlns:xlink="http://www.w3.org/1999/xlink" x="0px" y="0px" xml:space="preserve" viewBox="0 0 420.514 420.514">

    <path d="M293.814,254.728l-37.701,28.083l-7.636,24.527c-55.525-33.273-102.028-79.776-135.301-135.301l24.527-7.636l28.083-37.701

	L75.978,0L33.567,20.089L0,101.609l0.863,2.632c24.033,73.265,65.555,140.81,120.077,195.332

	c54.522,54.522,122.067,96.044,195.332,120.077l2.632,0.863l81.521-33.567l20.088-42.41L293.814,254.728z M147.246,126.481

	l-13.948,18.724L50.681,28.58l20.34-9.634L147.246,126.481z M318.327,404.53c-70.028-23.428-134.565-63.348-186.78-115.563

	C79.332,236.752,39.412,172.215,15.985,102.186l25.164-61.113l79.908,112.801l-30.221,9.409l4.594,8.095

	c36.402,64.154,89.554,117.306,153.708,153.708l8.096,4.594l9.408-30.221l112.801,79.907L318.327,404.53z M391.934,369.833

	l-116.626-82.617l18.724-13.948l107.536,76.225L391.934,369.833z"></path>

    <g></g>

    <g></g>

    <g></g>

    <g></g>

    <g></g>

    <g></g>

    <g></g>

    <g></g>

    <g></g>

    <g></g>

    <g></g>

    <g></g>

    <g></g>

    <g></g>

    <g></g>

  </symbol>

</svg>